<svg xmlns="http://www.w3.org/2000/svg" viewBox="0 0 22.27 22.27"><defs><style>.cls-1{fill:#282426;}</style></defs><g id="Capa_2" data-name="Capa 2"><g id="Layer_1" data-name="Layer 1"><g id="t6IJXG.tif"><path class="cls-1" d="M22.27,4V18.33a.19.19,0,0,0,0,.07c0,.16,0,.31-.05.46a4.2,4.2,0,0,1-2.5,3.08,4.31,4.31,0,0,1-1.66.33H4.24A4,4,0,0,1,2.78,22,4.2,4.2,0,0,1,0,18V4.16a4,4,0,0,1,.06-.69,4.11,4.11,0,0,1,1-2.08A4.12,4.12,0,0,1,3.85,0H18.42l.38,0a4.11,4.11,0,0,1,2.7,1.71A3.9,3.9,0,0,1,22.25,4,.24.24,0,0,0,22.27,4ZM18,4.28H15.68c-.29,0-.57,0-.86,0a3.56,3.56,0,0,0-1.1.24A2.41,2.41,0,0,0,12.24,6,4.38,4.38,0,0,0,12,7.65c0,.56,0,1.11,0,1.67,0,0,0,0,0,.07H10.62V12H12v0h0v7.56h0c.27,0,3.39,0,3.46,0h0c0-2.55,0-5.1,0-7.64v0h2.08l.28-2.6H15.44V9.31c0-.5,0-1,0-1.49a1.51,1.51,0,0,1,0-.3A.62.62,0,0,1,16,6.91a2.59,2.59,0,0,1,.48,0H18Z"/></g></g></g></svg>