<svg xmlns="http://www.w3.org/2000/svg" viewBox="0 0 59.15 59.15"><g id="Capa_2" data-name="Capa 2"><g id="Layer_1" data-name="Layer 1"><ellipse cx="45.23" cy="14.18" rx="13.56" ry="13.82"/><path d="M23.83,39.47V39H14.76v.49c0,2.2,1.84.33,1.84,2.92v5.23h-9V42.39c0-2.59,1.83-.72,1.83-2.92V39H.36v.49c0,2.2,1.83.33,1.83,2.92v13C2.19,58,.36,56.1.36,58.3v.49H9.43V58.3c0-2.2-1.83-.33-1.83-2.92V49.59h9v5.79c0,2.59-1.93.72-1.93,2.92v.49h9.16V58.3c0-2.2-1.83-.33-1.83-2.92v-13C22,39.8,23.83,41.67,23.83,39.47Z"/><rect x="29.06" y="-11.74" width="1.02" height="82.63" transform="translate(-12.25 29.58) rotate(-45)"/></g></g></svg>