<svg xmlns="http://www.w3.org/2000/svg" viewBox="0 0 22.27 22.27"><defs><style>.cls-1{fill:#282426;}</style></defs><g id="Capa_2" data-name="Capa 2"><g id="Layer_1" data-name="Layer 1"><g id="xv80Ct.tif"><path class="cls-1" d="M12.68,22.27H9.55l-.13,0H8.23a19.71,19.71,0,0,1-2.88-.17,6.53,6.53,0,0,1-2.47-.88A5.84,5.84,0,0,1,.36,17.73,10.38,10.38,0,0,1,0,14.85c0-2.49,0-5,0-7.46A10.86,10.86,0,0,1,.33,4.55,5.64,5.64,0,0,1,4,.52,8.41,8.41,0,0,1,6.92,0h8.4a9.27,9.27,0,0,1,2.34.3A5.55,5.55,0,0,1,21.26,3a7.21,7.21,0,0,1,.95,3.51c.07,2.94.09,5.87,0,8.81a10,10,0,0,1-.3,2.31,5.53,5.53,0,0,1-2.45,3.46A7.18,7.18,0,0,1,16,22.18c-.8.05-1.61.05-2.41.07Zm7.61-11V9a20.58,20.58,0,0,0-.22-3.5,4.08,4.08,0,0,0-1.18-2.32,3.6,3.6,0,0,0-2-1A20.35,20.35,0,0,0,13.67,2c-1.54,0-3.09,0-4.63,0a20.74,20.74,0,0,0-3.52.22A4.24,4.24,0,0,0,3.17,3.36a3.59,3.59,0,0,0-.94,1.93,17.43,17.43,0,0,0-.25,3c0,1.18,0,2.37,0,3.55S2,13.91,2,15a8,8,0,0,0,.38,2.53A3.58,3.58,0,0,0,5.06,20a12.82,12.82,0,0,0,2.69.3c1.95,0,3.91,0,5.86,0a17.21,17.21,0,0,0,3.21-.22A3.81,3.81,0,0,0,20,16.89a22.26,22.26,0,0,0,.25-3.26C20.3,12.84,20.29,12.05,20.29,11.26Z"/><path class="cls-1" d="M11.08,16.84a5.74,5.74,0,1,1,5.73-5.74A5.73,5.73,0,0,1,11.08,16.84Zm0-2a3.73,3.73,0,1,0-3.76-3.69A3.75,3.75,0,0,0,11.08,14.81Z"/><path class="cls-1" d="M17.06,6.48a1.41,1.41,0,0,1-1.35-1.36,1.36,1.36,0,1,1,2.71,0A1.43,1.43,0,0,1,17.06,6.48Z"/></g></g></g></svg>