<svg xmlns="http://www.w3.org/2000/svg" viewBox="0 0 129.09 44.82"><defs><style>.cls-1{fill:#282426;}</style></defs><g id="Capa_2" data-name="Capa 2"><g id="Layer_1" data-name="Layer 1"><path class="cls-1" d="M33.05,3.06V2.37H20.28v.69c0,3.09,2.58.46,2.58,4.1v9.63H10.19V7.16c0-3.64,2.58-1,2.58-4.1V2.37H0v.69c0,3.09,2.58.46,2.58,4.1V30c0,3.64-2.58,1-2.58,4.1v.69H12.77v-.69c0-3.09-2.58-.46-2.58-4.1V19.56H22.86V30c0,3.64-2.72,1-2.72,4.1v.69H33.05v-.69c0-3.09-2.58-.46-2.58-4.1V7.16C30.47,3.52,33.05,6.15,33.05,3.06Z"/><path class="cls-1" d="M59.55,31.68l-.23-.32a1.63,1.63,0,0,1-1.2.69c-1.57,0-1.2-3.5-1.2-4.19V21.54c0-9.73-9.31-9.77-10.56-9.77-3.45,0-9.08,1.15-9.08,5.11a3.29,3.29,0,0,0,3.46,3.05,3,3,0,0,0,3.18-2.86c0-.55-.23-1.06-.23-1.62C43.69,14.35,45,14,45.9,14c3.09,0,3.69,3.87,3.65,6.23-4.16.83-13.74,1.93-13.74,8.71,0,4.33,3.69,6.5,7.65,6.5a8.3,8.3,0,0,0,7.33-3.55c1.06,2.16,2.44,3.55,5.35,3.55,1.29,0,4-1.39,4-2.63C60.15,32.37,59.78,32,59.55,31.68Zm-9.91-5.76c0,2.26-.46,6.5-3.6,6.5-1.89,0-2.62-2.44-2.62-4,0-3.54,2.9-5.62,6.22-6Z"/><path class="cls-1" d="M75.73,11.77A8.22,8.22,0,0,0,70,14.21v-1.8H60.48v.83c0,2.86,2.58.42,2.58,4V40c0,1.75-.65,2-1.29,2.26s-1.29.27-1.29,1.61v.92H72.92V43.9c0-1.34-.64-1.43-1.29-1.61s-1.29-.51-1.29-2.26V34.36a15.09,15.09,0,0,0,5,1.06c6.69,0,11.07-5.67,11.07-11.94S82.42,11.77,75.73,11.77ZM73.34,32.88a5.24,5.24,0,0,1-3-1.06V16.38A4.44,4.44,0,0,1,73.47,15c4.16,0,4.66,6.18,4.66,9.17S77.57,32.88,73.34,32.88Z"/><path class="cls-1" d="M103.2,11.77a8.2,8.2,0,0,0-5.76,2.44v-1.8h-9.5v.83c0,2.86,2.58.42,2.58,4V40c0,1.75-.64,2-1.29,2.26s-1.29.27-1.29,1.61v.92h12.45V43.9c0-1.34-.65-1.43-1.3-1.61s-1.28-.51-1.28-2.26V34.36a15,15,0,0,0,5,1.06c6.68,0,11.06-5.67,11.06-11.94S109.88,11.77,103.2,11.77Zm-2.4,21.11a5.18,5.18,0,0,1-3-1.06V16.38A4.42,4.42,0,0,1,100.94,15c4.15,0,4.65,6.18,4.65,9.17S105,32.88,100.8,32.88Z"/><path class="cls-1" d="M126.5,30V12.41h-9.9v.7c0,3.08,2.62.46,2.62,4.1V30c0,3.64-2.62,1-2.62,4.1v.69h12.49v-.69C129.09,31,126.5,33.62,126.5,30Z"/><line class="cls-1" x1="70.43" y1="12.41" x2="60.93" y2="12.41"/><ellipse class="cls-1" cx="122.84" cy="5.05" rx="4.95" ry="5.05"/></g></g></svg>