<svg xmlns="http://www.w3.org/2000/svg" viewBox="0 0 26.62 22.27"><defs><style>.cls-1{fill:#282426;}</style></defs><g id="Capa_2" data-name="Capa 2"><g id="Layer_1" data-name="Layer 1"><g id="_3dD58d.tif" data-name="3dD58d.tif"><path class="cls-1" d="M8.81,22.27H7.45l-.19,0A16.6,16.6,0,0,1,4.93,22a11.69,11.69,0,0,1-4-1.51c-.32-.19-.62-.43-.93-.64l0,0,.17,0a9,9,0,0,0,3.19-.14A12.57,12.57,0,0,0,8,17.51l.07,0,0,0A4.69,4.69,0,0,1,4.9,16.39,6.29,6.29,0,0,1,3,13.63a7.41,7.41,0,0,0,2.42-.15,6,6,0,0,1-3.14-2A5.53,5.53,0,0,1,1.07,7.89a5.22,5.22,0,0,0,2.42.71l-.11-.11A7,7,0,0,1,1.66,6.41,5,5,0,0,1,1.1,3.57a8.31,8.31,0,0,1,.66-2.4l0,0h0l.09.1A18.84,18.84,0,0,0,6.44,5a13.21,13.21,0,0,0,6.17,1.88h.5a7.25,7.25,0,0,1,0-2.37,5.13,5.13,0,0,1,1.55-2.95A5.82,5.82,0,0,1,17.16.22,4.73,4.73,0,0,1,19.37.07a5,5,0,0,1,2.84,1.61.21.21,0,0,0,.24.08c.42-.09.84-.17,1.25-.28a8.56,8.56,0,0,0,2-.92l.15-.08a5.56,5.56,0,0,1-2.35,3.11s.05,0,.07,0c.48-.12,1-.21,1.45-.36s1.07-.38,1.61-.57c-.09.16-.16.32-.26.47a7.7,7.7,0,0,1-2.42,2.4c-.06,0-.1.07-.08.16a2.19,2.19,0,0,1,0,.36,12.25,12.25,0,0,1-.14,2.42,17.92,17.92,0,0,1-1.63,5.19,15.92,15.92,0,0,1-3.88,5.18A13.21,13.21,0,0,1,14,21.37a17.68,17.68,0,0,1-4.45.84Z"/></g></g></g></svg>